<svg xmlns="http://www.w3.org/2000/svg" width="256" height="128" viewBox="0 0 256 128">
  <!-- Base ground fill -->
  <rect x="0" y="0" width="256" height="128" fill="#16163a"/>

  <!-- Top edge line -->
  <rect x="0" y="0" width="256" height="2" fill="#16e0bd" opacity="0.8"/>

  <!-- Horizontal circuit lines -->
  <rect x="0" y="16" width="80" height="1" fill="#16e0bd" opacity="0.3"/>
  <rect x="96" y="16" width="40" height="1" fill="#16e0bd" opacity="0.3"/>
  <rect x="160" y="16" width="96" height="1" fill="#16e0bd" opacity="0.3"/>

  <rect x="20" y="32" width="60" height="1" fill="#16e0bd" opacity="0.25"/>
  <rect x="120" y="32" width="50" height="1" fill="#16e0bd" opacity="0.25"/>
  <rect x="200" y="32" width="56" height="1" fill="#16e0bd" opacity="0.25"/>

  <rect x="0" y="48" width="40" height="1" fill="#16e0bd" opacity="0.2"/>
  <rect x="60" y="48" width="80" height="1" fill="#16e0bd" opacity="0.2"/>
  <rect x="180" y="48" width="76" height="1" fill="#16e0bd" opacity="0.2"/>

  <rect x="30" y="64" width="90" height="1" fill="#16e0bd" opacity="0.15"/>
  <rect x="140" y="64" width="60" height="1" fill="#16e0bd" opacity="0.15"/>
  <rect x="220" y="64" width="36" height="1" fill="#16e0bd" opacity="0.15"/>

  <rect x="0" y="80" width="50" height="1" fill="#16e0bd" opacity="0.12"/>
  <rect x="80" y="80" width="70" height="1" fill="#16e0bd" opacity="0.12"/>
  <rect x="170" y="80" width="86" height="1" fill="#16e0bd" opacity="0.12"/>

  <rect x="10" y="96" width="100" height="1" fill="#16e0bd" opacity="0.1"/>
  <rect x="130" y="96" width="40" height="1" fill="#16e0bd" opacity="0.1"/>
  <rect x="200" y="96" width="56" height="1" fill="#16e0bd" opacity="0.1"/>

  <rect x="0" y="112" width="70" height="1" fill="#16e0bd" opacity="0.08"/>
  <rect x="90" y="112" width="80" height="1" fill="#16e0bd" opacity="0.08"/>
  <rect x="190" y="112" width="66" height="1" fill="#16e0bd" opacity="0.08"/>

  <!-- Vertical circuit lines -->
  <rect x="32" y="0" width="1" height="48" fill="#16e0bd" opacity="0.25"/>
  <rect x="80" y="16" width="1" height="32" fill="#16e0bd" opacity="0.2"/>
  <rect x="96" y="0" width="1" height="64" fill="#16e0bd" opacity="0.3"/>
  <rect x="136" y="16" width="1" height="48" fill="#16e0bd" opacity="0.2"/>
  <rect x="160" y="0" width="1" height="80" fill="#16e0bd" opacity="0.25"/>
  <rect x="200" y="32" width="1" height="64" fill="#16e0bd" opacity="0.15"/>
  <rect x="224" y="0" width="1" height="48" fill="#16e0bd" opacity="0.2"/>

  <!-- Circuit nodes (small bright dots at intersections) -->
  <rect x="31" y="15" width="3" height="3" fill="#16e0bd" opacity="0.5"/>
  <rect x="79" y="15" width="3" height="3" fill="#16e0bd" opacity="0.4"/>
  <rect x="95" y="15" width="3" height="3" fill="#16e0bd" opacity="0.5"/>
  <rect x="135" y="31" width="3" height="3" fill="#16e0bd" opacity="0.4"/>
  <rect x="159" y="15" width="3" height="3" fill="#16e0bd" opacity="0.5"/>
  <rect x="199" y="31" width="3" height="3" fill="#16e0bd" opacity="0.35"/>
  <rect x="223" y="15" width="3" height="3" fill="#16e0bd" opacity="0.4"/>
  <rect x="95" y="47" width="3" height="3" fill="#16e0bd" opacity="0.35"/>
  <rect x="159" y="47" width="3" height="3" fill="#16e0bd" opacity="0.3"/>
  <rect x="31" y="47" width="3" height="3" fill="#16e0bd" opacity="0.3"/>
  <rect x="159" y="63" width="3" height="3" fill="#16e0bd" opacity="0.25"/>
  <rect x="199" y="63" width="3" height="3" fill="#16e0bd" opacity="0.2"/>
  <rect x="199" y="79" width="3" height="3" fill="#16e0bd" opacity="0.15"/>

  <!-- Larger circuit pads -->
  <rect x="94" y="0" width="5" height="3" fill="#16e0bd" opacity="0.4"/>
  <rect x="158" y="0" width="5" height="3" fill="#16e0bd" opacity="0.35"/>
  <rect x="30" y="0" width="5" height="3" fill="#16e0bd" opacity="0.3"/>
  <rect x="222" y="0" width="5" height="3" fill="#16e0bd" opacity="0.35"/>
</svg>