<svg xmlns="http://www.w3.org/2000/svg" width="1920" height="400" viewBox="0 0 1920 400">
  <!-- Building cluster 1 -->
  <rect x="20" y="120" width="60" height="280" fill="#2a2a72"/>
  <rect x="30" y="140" width="4" height="4" fill="#16e0bd" opacity="0.7"/>
  <rect x="50" y="160" width="4" height="4" fill="#ff2aad" opacity="0.6"/>
  <rect x="36" y="200" width="4" height="4" fill="#16e0bd" opacity="0.5"/>
  <rect x="56" y="240" width="4" height="4" fill="#16e0bd" opacity="0.8"/>
  <rect x="30" y="280" width="4" height="4" fill="#ff2aad" opacity="0.5"/>

  <rect x="90" y="80" width="80" height="320" fill="#2a2a72"/>
  <rect x="100" y="100" width="4" height="4" fill="#16e0bd" opacity="0.6"/>
  <rect x="120" y="100" width="4" height="4" fill="#ff2aad" opacity="0.7"/>
  <rect x="140" y="120" width="4" height="4" fill="#16e0bd" opacity="0.5"/>
  <rect x="110" y="160" width="4" height="4" fill="#16e0bd" opacity="0.8"/>
  <rect x="130" y="160" width="4" height="4" fill="#ff2aad" opacity="0.6"/>
  <rect x="150" y="200" width="4" height="4" fill="#16e0bd" opacity="0.7"/>
  <rect x="100" y="240" width="4" height="4" fill="#16e0bd" opacity="0.5"/>
  <rect x="140" y="280" width="4" height="4" fill="#ff2aad" opacity="0.6"/>
  <rect x="120" y="320" width="4" height="4" fill="#16e0bd" opacity="0.7"/>

  <!-- Building cluster 2 -->
  <rect x="200" y="160" width="50" height="240" fill="#2a2a72"/>
  <rect x="210" y="180" width="4" height="4" fill="#16e0bd" opacity="0.6"/>
  <rect x="230" y="220" width="4" height="4" fill="#ff2aad" opacity="0.7"/>
  <rect x="210" y="300" width="4" height="4" fill="#16e0bd" opacity="0.5"/>

  <rect x="260" y="60" width="70" height="340" fill="#2a2a72"/>
  <!-- Antenna -->
  <rect x="292" y="40" width="4" height="20" fill="#2a2a72"/>
  <rect x="291" y="38" width="6" height="4" fill="#ff2aad" opacity="0.9"/>
  <rect x="270" y="80" width="4" height="4" fill="#16e0bd" opacity="0.7"/>
  <rect x="290" y="80" width="4" height="4" fill="#16e0bd" opacity="0.6"/>
  <rect x="310" y="100" width="4" height="4" fill="#ff2aad" opacity="0.5"/>
  <rect x="280" y="140" width="4" height="4" fill="#16e0bd" opacity="0.8"/>
  <rect x="300" y="180" width="4" height="4" fill="#16e0bd" opacity="0.6"/>
  <rect x="270" y="220" width="4" height="4" fill="#ff2aad" opacity="0.7"/>
  <rect x="310" y="260" width="4" height="4" fill="#16e0bd" opacity="0.5"/>
  <rect x="280" y="340" width="4" height="4" fill="#16e0bd" opacity="0.7"/>

  <!-- Building cluster 3 -->
  <rect x="380" y="140" width="90" height="260" fill="#2a2a72"/>
  <rect x="390" y="160" width="4" height="4" fill="#16e0bd" opacity="0.6"/>
  <rect x="420" y="160" width="4" height="4" fill="#ff2aad" opacity="0.7"/>
  <rect x="450" y="180" width="4" height="4" fill="#16e0bd" opacity="0.5"/>
  <rect x="400" y="220" width="4" height="4" fill="#16e0bd" opacity="0.8"/>
  <rect x="440" y="260" width="4" height="4" fill="#ff2aad" opacity="0.6"/>
  <rect x="390" y="320" width="4" height="4" fill="#16e0bd" opacity="0.7"/>
  <rect x="430" y="340" width="4" height="4" fill="#16e0bd" opacity="0.5"/>

  <rect x="480" y="100" width="55" height="300" fill="#2a2a72"/>
  <rect x="490" y="120" width="4" height="4" fill="#ff2aad" opacity="0.6"/>
  <rect x="510" y="140" width="4" height="4" fill="#16e0bd" opacity="0.7"/>
  <rect x="495" y="200" width="4" height="4" fill="#16e0bd" opacity="0.8"/>
  <rect x="520" y="260" width="4" height="4" fill="#ff2aad" opacity="0.5"/>
  <rect x="490" y="340" width="4" height="4" fill="#16e0bd" opacity="0.6"/>

  <!-- Building cluster 4 -->
  <rect x="580" y="180" width="40" height="220" fill="#2a2a72"/>
  <rect x="590" y="200" width="4" height="4" fill="#16e0bd" opacity="0.7"/>
  <rect x="600" y="260" width="4" height="4" fill="#ff2aad" opacity="0.6"/>

  <rect x="630" y="50" width="100" height="350" fill="#2a2a72"/>
  <rect x="678" y="30" width="4" height="20" fill="#2a2a72"/>
  <rect x="676" y="28" width="8" height="4" fill="#ff2aad" opacity="0.9"/>
  <rect x="640" y="70" width="4" height="4" fill="#16e0bd" opacity="0.6"/>
  <rect x="670" y="70" width="4" height="4" fill="#16e0bd" opacity="0.7"/>
  <rect x="700" y="90" width="4" height="4" fill="#ff2aad" opacity="0.5"/>
  <rect x="650" y="130" width="4" height="4" fill="#16e0bd" opacity="0.8"/>
  <rect x="690" y="130" width="4" height="4" fill="#16e0bd" opacity="0.6"/>
  <rect x="660" y="190" width="4" height="4" fill="#ff2aad" opacity="0.7"/>
  <rect x="710" y="230" width="4" height="4" fill="#16e0bd" opacity="0.5"/>
  <rect x="640" y="290" width="4" height="4" fill="#16e0bd" opacity="0.7"/>
  <rect x="680" y="330" width="4" height="4" fill="#ff2aad" opacity="0.6"/>

  <!-- Building cluster 5 -->
  <rect x="770" y="130" width="65" height="270" fill="#2a2a72"/>
  <rect x="780" y="150" width="4" height="4" fill="#16e0bd" opacity="0.6"/>
  <rect x="810" y="190" width="4" height="4" fill="#ff2aad" opacity="0.7"/>
  <rect x="790" y="250" width="4" height="4" fill="#16e0bd" opacity="0.5"/>
  <rect x="815" y="310" width="4" height="4" fill="#16e0bd" opacity="0.8"/>

  <rect x="845" y="170" width="45" height="230" fill="#2a2a72"/>
  <rect x="855" y="190" width="4" height="4" fill="#ff2aad" opacity="0.6"/>
  <rect x="870" y="240" width="4" height="4" fill="#16e0bd" opacity="0.7"/>
  <rect x="855" y="320" width="4" height="4" fill="#16e0bd" opacity="0.5"/>

  <!-- Building cluster 6 -->
  <rect x="930" y="90" width="75" height="310" fill="#2a2a72"/>
  <rect x="965" y="70" width="4" height="20" fill="#2a2a72"/>
  <rect x="963" y="68" width="8" height="4" fill="#16e0bd" opacity="0.9"/>
  <rect x="940" y="110" width="4" height="4" fill="#16e0bd" opacity="0.7"/>
  <rect x="970" y="110" width="4" height="4" fill="#ff2aad" opacity="0.6"/>
  <rect x="985" y="150" width="4" height="4" fill="#16e0bd" opacity="0.5"/>
  <rect x="945" y="210" width="4" height="4" fill="#16e0bd" opacity="0.8"/>
  <rect x="975" y="270" width="4" height="4" fill="#ff2aad" opacity="0.7"/>
  <rect x="940" y="340" width="4" height="4" fill="#16e0bd" opacity="0.6"/>

  <rect x="1020" y="150" width="55" height="250" fill="#2a2a72"/>
  <rect x="1030" y="170" width="4" height="4" fill="#16e0bd" opacity="0.6"/>
  <rect x="1055" y="220" width="4" height="4" fill="#ff2aad" opacity="0.7"/>
  <rect x="1035" y="300" width="4" height="4" fill="#16e0bd" opacity="0.5"/>

  <!-- Building cluster 7 -->
  <rect x="1110" y="110" width="80" height="290" fill="#2a2a72"/>
  <rect x="1120" y="130" width="4" height="4" fill="#ff2aad" opacity="0.6"/>
  <rect x="1150" y="130" width="4" height="4" fill="#16e0bd" opacity="0.7"/>
  <rect x="1170" y="170" width="4" height="4" fill="#16e0bd" opacity="0.8"/>
  <rect x="1130" y="210" width="4" height="4" fill="#ff2aad" opacity="0.5"/>
  <rect x="1160" y="260" width="4" height="4" fill="#16e0bd" opacity="0.6"/>
  <rect x="1120" y="330" width="4" height="4" fill="#16e0bd" opacity="0.7"/>

  <rect x="1200" y="190" width="40" height="210" fill="#2a2a72"/>
  <rect x="1210" y="210" width="4" height="4" fill="#16e0bd" opacity="0.6"/>
  <rect x="1225" y="280" width="4" height="4" fill="#ff2aad" opacity="0.7"/>

  <!-- Building cluster 8 -->
  <rect x="1280" y="70" width="90" height="330" fill="#2a2a72"/>
  <rect x="1323" y="50" width="4" height="20" fill="#2a2a72"/>
  <rect x="1321" y="48" width="8" height="4" fill="#ff2aad" opacity="0.9"/>
  <rect x="1290" y="90" width="4" height="4" fill="#16e0bd" opacity="0.7"/>
  <rect x="1320" y="90" width="4" height="4" fill="#16e0bd" opacity="0.6"/>
  <rect x="1350" y="110" width="4" height="4" fill="#ff2aad" opacity="0.5"/>
  <rect x="1300" y="150" width="4" height="4" fill="#16e0bd" opacity="0.8"/>
  <rect x="1340" y="190" width="4" height="4" fill="#16e0bd" opacity="0.6"/>
  <rect x="1290" y="250" width="4" height="4" fill="#ff2aad" opacity="0.7"/>
  <rect x="1330" y="310" width="4" height="4" fill="#16e0bd" opacity="0.5"/>
  <rect x="1350" y="360" width="4" height="4" fill="#16e0bd" opacity="0.7"/>

  <!-- Building cluster 9 -->
  <rect x="1400" y="160" width="50" height="240" fill="#2a2a72"/>
  <rect x="1410" y="180" width="4" height="4" fill="#16e0bd" opacity="0.6"/>
  <rect x="1430" y="240" width="4" height="4" fill="#ff2aad" opacity="0.7"/>
  <rect x="1415" y="320" width="4" height="4" fill="#16e0bd" opacity="0.5"/>

  <rect x="1470" y="120" width="70" height="280" fill="#2a2a72"/>
  <rect x="1480" y="140" width="4" height="4" fill="#16e0bd" opacity="0.7"/>
  <rect x="1510" y="140" width="4" height="4" fill="#ff2aad" opacity="0.6"/>
  <rect x="1490" y="200" width="4" height="4" fill="#16e0bd" opacity="0.8"/>
  <rect x="1520" y="260" width="4" height="4" fill="#16e0bd" opacity="0.5"/>
  <rect x="1480" y="340" width="4" height="4" fill="#ff2aad" opacity="0.7"/>

  <!-- Building cluster 10 -->
  <rect x="1570" y="100" width="60" height="300" fill="#2a2a72"/>
  <rect x="1580" y="120" width="4" height="4" fill="#16e0bd" opacity="0.6"/>
  <rect x="1610" y="160" width="4" height="4" fill="#ff2aad" opacity="0.7"/>
  <rect x="1585" y="220" width="4" height="4" fill="#16e0bd" opacity="0.8"/>
  <rect x="1610" y="300" width="4" height="4" fill="#16e0bd" opacity="0.5"/>

  <rect x="1650" y="140" width="80" height="260" fill="#2a2a72"/>
  <rect x="1660" y="160" width="4" height="4" fill="#16e0bd" opacity="0.7"/>
  <rect x="1690" y="160" width="4" height="4" fill="#ff2aad" opacity="0.6"/>
  <rect x="1710" y="200" width="4" height="4" fill="#16e0bd" opacity="0.5"/>
  <rect x="1670" y="260" width="4" height="4" fill="#16e0bd" opacity="0.8"/>
  <rect x="1700" y="320" width="4" height="4" fill="#ff2aad" opacity="0.7"/>

  <rect x="1760" y="180" width="50" height="220" fill="#2a2a72"/>
  <rect x="1770" y="200" width="4" height="4" fill="#16e0bd" opacity="0.6"/>
  <rect x="1790" y="260" width="4" height="4" fill="#ff2aad" opacity="0.7"/>
  <rect x="1775" y="340" width="4" height="4" fill="#16e0bd" opacity="0.5"/>

  <rect x="1840" y="90" width="60" height="310" fill="#2a2a72"/>
  <rect x="1868" y="70" width="4" height="20" fill="#2a2a72"/>
  <rect x="1866" y="68" width="8" height="4" fill="#16e0bd" opacity="0.9"/>
  <rect x="1850" y="110" width="4" height="4" fill="#16e0bd" opacity="0.7"/>
  <rect x="1880" y="150" width="4" height="4" fill="#ff2aad" opacity="0.6"/>
  <rect x="1855" y="220" width="4" height="4" fill="#16e0bd" opacity="0.8"/>
  <rect x="1875" y="300" width="4" height="4" fill="#16e0bd" opacity="0.5"/>

  <!-- Wrap-around building: extends past right edge to connect with left edge of next tile -->
  <rect x="1910" y="140" width="40" height="260" fill="#2a2a72"/>
  <rect x="1916" y="160" width="4" height="4" fill="#16e0bd" opacity="0.6"/>
  <rect x="1930" y="200" width="4" height="4" fill="#ff2aad" opacity="0.5"/>
  <rect x="1916" y="260" width="4" height="4" fill="#16e0bd" opacity="0.7"/>

  <!-- Mirror wrap: partial building at left edge to meet the right-edge wrap of previous tile -->
  <rect x="-10" y="140" width="40" height="260" fill="#2a2a72"/>
  <rect x="6" y="180" width="4" height="4" fill="#16e0bd" opacity="0.5"/>
  <rect x="14" y="240" width="4" height="4" fill="#ff2aad" opacity="0.6"/>
  <rect x="6" y="320" width="4" height="4" fill="#16e0bd" opacity="0.7"/>
</svg>