<svg xmlns="http://www.w3.org/2000/svg" width="1920" height="500" viewBox="0 0 1920 500">
  <!-- Foreground buildings - larger, more detail -->

  <!-- Building 1: Wide block -->
  <rect x="0" y="180" width="120" height="320" fill="#3a3a92"/>
  <!-- Windows grid -->
  <rect x="12" y="200" width="8" height="8" fill="#16e0bd" opacity="0.7"/>
  <rect x="32" y="200" width="8" height="8" fill="#1a1a3a"/>
  <rect x="52" y="200" width="8" height="8" fill="#16e0bd" opacity="0.5"/>
  <rect x="72" y="200" width="8" height="8" fill="#ff2aad" opacity="0.6"/>
  <rect x="92" y="200" width="8" height="8" fill="#16e0bd" opacity="0.8"/>
  <rect x="12" y="230" width="8" height="8" fill="#1a1a3a"/>
  <rect x="32" y="230" width="8" height="8" fill="#16e0bd" opacity="0.6"/>
  <rect x="52" y="230" width="8" height="8" fill="#ff2aad" opacity="0.5"/>
  <rect x="72" y="230" width="8" height="8" fill="#16e0bd" opacity="0.7"/>
  <rect x="92" y="230" width="8" height="8" fill="#1a1a3a"/>
  <rect x="12" y="260" width="8" height="8" fill="#16e0bd" opacity="0.5"/>
  <rect x="32" y="260" width="8" height="8" fill="#ff2aad" opacity="0.7"/>
  <rect x="52" y="260" width="8" height="8" fill="#16e0bd" opacity="0.6"/>
  <rect x="72" y="260" width="8" height="8" fill="#1a1a3a"/>
  <rect x="92" y="260" width="8" height="8" fill="#16e0bd" opacity="0.8"/>
  <rect x="12" y="290" width="8" height="8" fill="#16e0bd" opacity="0.7"/>
  <rect x="52" y="290" width="8" height="8" fill="#1a1a3a"/>
  <rect x="92" y="290" width="8" height="8" fill="#ff2aad" opacity="0.5"/>
  <rect x="32" y="320" width="8" height="8" fill="#16e0bd" opacity="0.6"/>
  <rect x="72" y="320" width="8" height="8" fill="#16e0bd" opacity="0.5"/>
  <rect x="12" y="350" width="8" height="8" fill="#ff2aad" opacity="0.6"/>
  <rect x="52" y="350" width="8" height="8" fill="#16e0bd" opacity="0.7"/>
  <rect x="92" y="350" width="8" height="8" fill="#16e0bd" opacity="0.5"/>
  <rect x="32" y="380" width="8" height="8" fill="#16e0bd" opacity="0.8"/>
  <rect x="72" y="380" width="8" height="8" fill="#ff2aad" opacity="0.6"/>
  <!-- Door -->
  <rect x="44" y="460" width="32" height="40" fill="#1a1a3a"/>

  <!-- Building 2: Tall tower -->
  <rect x="150" y="60" width="80" height="440" fill="#3a3a92"/>
  <!-- Antenna -->
  <rect x="188" y="20" width="4" height="40" fill="#3a3a92"/>
  <rect x="184" y="16" width="12" height="6" fill="#ff2aad" opacity="0.9"/>
  <!-- Windows -->
  <rect x="162" y="80" width="8" height="8" fill="#16e0bd" opacity="0.7"/>
  <rect x="182" y="80" width="8" height="8" fill="#16e0bd" opacity="0.6"/>
  <rect x="202" y="80" width="8" height="8" fill="#ff2aad" opacity="0.5"/>
  <rect x="162" y="110" width="8" height="8" fill="#1a1a3a"/>
  <rect x="182" y="110" width="8" height="8" fill="#16e0bd" opacity="0.8"/>
  <rect x="202" y="110" width="8" height="8" fill="#16e0bd" opacity="0.6"/>
  <rect x="162" y="140" width="8" height="8" fill="#16e0bd" opacity="0.5"/>
  <rect x="182" y="140" width="8" height="8" fill="#ff2aad" opacity="0.7"/>
  <rect x="202" y="140" width="8" height="8" fill="#1a1a3a"/>
  <rect x="162" y="170" width="8" height="8" fill="#16e0bd" opacity="0.7"/>
  <rect x="182" y="170" width="8" height="8" fill="#1a1a3a"/>
  <rect x="202" y="170" width="8" height="8" fill="#16e0bd" opacity="0.6"/>
  <rect x="162" y="200" width="8" height="8" fill="#ff2aad" opacity="0.6"/>
  <rect x="182" y="200" width="8" height="8" fill="#16e0bd" opacity="0.5"/>
  <rect x="202" y="200" width="8" height="8" fill="#16e0bd" opacity="0.8"/>
  <rect x="162" y="260" width="8" height="8" fill="#16e0bd" opacity="0.6"/>
  <rect x="202" y="260" width="8" height="8" fill="#ff2aad" opacity="0.5"/>
  <rect x="182" y="320" width="8" height="8" fill="#16e0bd" opacity="0.7"/>
  <rect x="162" y="380" width="8" height="8" fill="#16e0bd" opacity="0.5"/>
  <rect x="202" y="380" width="8" height="8" fill="#16e0bd" opacity="0.6"/>
  <rect x="182" y="420" width="8" height="8" fill="#ff2aad" opacity="0.7"/>

  <!-- Building 3 -->
  <rect x="260" y="220" width="100" height="280" fill="#3a3a92"/>
  <rect x="272" y="240" width="8" height="8" fill="#16e0bd" opacity="0.6"/>
  <rect x="296" y="240" width="8" height="8" fill="#ff2aad" opacity="0.7"/>
  <rect x="320" y="240" width="8" height="8" fill="#16e0bd" opacity="0.5"/>
  <rect x="340" y="240" width="8" height="8" fill="#16e0bd" opacity="0.8"/>
  <rect x="272" y="270" width="8" height="8" fill="#ff2aad" opacity="0.5"/>
  <rect x="296" y="270" width="8" height="8" fill="#16e0bd" opacity="0.7"/>
  <rect x="320" y="270" width="8" height="8" fill="#1a1a3a"/>
  <rect x="340" y="270" width="8" height="8" fill="#16e0bd" opacity="0.6"/>
  <rect x="272" y="300" width="8" height="8" fill="#16e0bd" opacity="0.8"/>
  <rect x="296" y="300" width="8" height="8" fill="#1a1a3a"/>
  <rect x="320" y="300" width="8" height="8" fill="#16e0bd" opacity="0.6"/>
  <rect x="340" y="300" width="8" height="8" fill="#ff2aad" opacity="0.7"/>
  <rect x="296" y="360" width="8" height="8" fill="#16e0bd" opacity="0.5"/>
  <rect x="340" y="360" width="8" height="8" fill="#16e0bd" opacity="0.7"/>
  <rect x="272" y="420" width="8" height="8" fill="#ff2aad" opacity="0.6"/>
  <rect x="320" y="420" width="8" height="8" fill="#16e0bd" opacity="0.5"/>

  <!-- Building 4: Stepped -->
  <rect x="400" y="280" width="60" height="220" fill="#3a3a92"/>
  <rect x="420" y="240" width="80" height="260" fill="#3a3a92"/>
  <rect x="412" y="300" width="8" height="8" fill="#16e0bd" opacity="0.6"/>
  <rect x="436" y="260" width="8" height="8" fill="#ff2aad" opacity="0.7"/>
  <rect x="460" y="260" width="8" height="8" fill="#16e0bd" opacity="0.5"/>
  <rect x="480" y="260" width="8" height="8" fill="#16e0bd" opacity="0.8"/>
  <rect x="436" y="300" width="8" height="8" fill="#16e0bd" opacity="0.7"/>
  <rect x="460" y="300" width="8" height="8" fill="#1a1a3a"/>
  <rect x="480" y="300" width="8" height="8" fill="#ff2aad" opacity="0.6"/>
  <rect x="412" y="360" width="8" height="8" fill="#16e0bd" opacity="0.5"/>
  <rect x="460" y="360" width="8" height="8" fill="#16e0bd" opacity="0.6"/>
  <rect x="436" y="420" width="8" height="8" fill="#ff2aad" opacity="0.5"/>
  <rect x="480" y="420" width="8" height="8" fill="#16e0bd" opacity="0.7"/>

  <!-- Building 5 -->
  <rect x="540" y="120" width="90" height="380" fill="#3a3a92"/>
  <rect x="583" y="90" width="4" height="30" fill="#3a3a92"/>
  <rect x="580" y="86" width="10" height="6" fill="#16e0bd" opacity="0.9"/>
  <rect x="552" y="140" width="8" height="8" fill="#16e0bd" opacity="0.7"/>
  <rect x="576" y="140" width="8" height="8" fill="#ff2aad" opacity="0.6"/>
  <rect x="600" y="140" width="8" height="8" fill="#16e0bd" opacity="0.5"/>
  <rect x="552" y="180" width="8" height="8" fill="#1a1a3a"/>
  <rect x="576" y="180" width="8" height="8" fill="#16e0bd" opacity="0.8"/>
  <rect x="600" y="180" width="8" height="8" fill="#ff2aad" opacity="0.7"/>
  <rect x="552" y="220" width="8" height="8" fill="#16e0bd" opacity="0.6"/>
  <rect x="576" y="220" width="8" height="8" fill="#16e0bd" opacity="0.5"/>
  <rect x="600" y="220" width="8" height="8" fill="#1a1a3a"/>
  <rect x="576" y="300" width="8" height="8" fill="#16e0bd" opacity="0.7"/>
  <rect x="552" y="360" width="8" height="8" fill="#ff2aad" opacity="0.6"/>
  <rect x="600" y="420" width="8" height="8" fill="#16e0bd" opacity="0.5"/>

  <!-- Building 6 -->
  <rect x="670" y="200" width="70" height="300" fill="#3a3a92"/>
  <rect x="682" y="220" width="8" height="8" fill="#16e0bd" opacity="0.6"/>
  <rect x="706" y="220" width="8" height="8" fill="#16e0bd" opacity="0.7"/>
  <rect x="720" y="220" width="8" height="8" fill="#ff2aad" opacity="0.5"/>
  <rect x="682" y="260" width="8" height="8" fill="#ff2aad" opacity="0.7"/>
  <rect x="706" y="260" width="8" height="8" fill="#1a1a3a"/>
  <rect x="720" y="260" width="8" height="8" fill="#16e0bd" opacity="0.6"/>
  <rect x="682" y="320" width="8" height="8" fill="#16e0bd" opacity="0.5"/>
  <rect x="720" y="320" width="8" height="8" fill="#16e0bd" opacity="0.8"/>
  <rect x="706" y="400" width="8" height="8" fill="#ff2aad" opacity="0.6"/>

  <!-- Building 7: Wide low -->
  <rect x="780" y="300" width="140" height="200" fill="#3a3a92"/>
  <rect x="792" y="320" width="8" height="8" fill="#16e0bd" opacity="0.7"/>
  <rect x="816" y="320" width="8" height="8" fill="#ff2aad" opacity="0.6"/>
  <rect x="840" y="320" width="8" height="8" fill="#16e0bd" opacity="0.5"/>
  <rect x="864" y="320" width="8" height="8" fill="#16e0bd" opacity="0.8"/>
  <rect x="888" y="320" width="8" height="8" fill="#ff2aad" opacity="0.7"/>
  <rect x="792" y="360" width="8" height="8" fill="#1a1a3a"/>
  <rect x="840" y="360" width="8" height="8" fill="#16e0bd" opacity="0.6"/>
  <rect x="888" y="360" width="8" height="8" fill="#16e0bd" opacity="0.5"/>
  <rect x="816" y="400" width="8" height="8" fill="#16e0bd" opacity="0.7"/>
  <rect x="864" y="400" width="8" height="8" fill="#ff2aad" opacity="0.6"/>
  <!-- Garage door -->
  <rect x="830" y="450" width="40" height="50" fill="#1a1a3a"/>

  <!-- Building 8 -->
  <rect x="960" y="100" width="100" height="400" fill="#3a3a92"/>
  <rect x="1008" y="70" width="4" height="30" fill="#3a3a92"/>
  <rect x="1005" y="66" width="10" height="6" fill="#ff2aad" opacity="0.9"/>
  <rect x="972" y="120" width="8" height="8" fill="#16e0bd" opacity="0.6"/>
  <rect x="1000" y="120" width="8" height="8" fill="#16e0bd" opacity="0.7"/>
  <rect x="1028" y="120" width="8" height="8" fill="#ff2aad" opacity="0.5"/>
  <rect x="1040" y="120" width="8" height="8" fill="#16e0bd" opacity="0.8"/>
  <rect x="972" y="160" width="8" height="8" fill="#ff2aad" opacity="0.7"/>
  <rect x="1000" y="160" width="8" height="8" fill="#1a1a3a"/>
  <rect x="1028" y="160" width="8" height="8" fill="#16e0bd" opacity="0.6"/>
  <rect x="1040" y="160" width="8" height="8" fill="#16e0bd" opacity="0.5"/>
  <rect x="972" y="200" width="8" height="8" fill="#16e0bd" opacity="0.5"/>
  <rect x="1000" y="200" width="8" height="8" fill="#16e0bd" opacity="0.8"/>
  <rect x="1028" y="200" width="8" height="8" fill="#ff2aad" opacity="0.6"/>
  <rect x="1000" y="280" width="8" height="8" fill="#16e0bd" opacity="0.7"/>
  <rect x="1040" y="280" width="8" height="8" fill="#16e0bd" opacity="0.6"/>
  <rect x="972" y="360" width="8" height="8" fill="#ff2aad" opacity="0.5"/>
  <rect x="1028" y="360" width="8" height="8" fill="#16e0bd" opacity="0.7"/>
  <rect x="1000" y="420" width="8" height="8" fill="#16e0bd" opacity="0.6"/>

  <!-- Building 9 -->
  <rect x="1100" y="240" width="80" height="260" fill="#3a3a92"/>
  <rect x="1112" y="260" width="8" height="8" fill="#16e0bd" opacity="0.7"/>
  <rect x="1136" y="260" width="8" height="8" fill="#ff2aad" opacity="0.6"/>
  <rect x="1160" y="260" width="8" height="8" fill="#16e0bd" opacity="0.5"/>
  <rect x="1112" y="300" width="8" height="8" fill="#1a1a3a"/>
  <rect x="1136" y="300" width="8" height="8" fill="#16e0bd" opacity="0.8"/>
  <rect x="1160" y="300" width="8" height="8" fill="#16e0bd" opacity="0.6"/>
  <rect x="1112" y="340" width="8" height="8" fill="#16e0bd" opacity="0.5"/>
  <rect x="1136" y="340" width="8" height="8" fill="#ff2aad" opacity="0.7"/>
  <rect x="1160" y="340" width="8" height="8" fill="#1a1a3a"/>
  <rect x="1136" y="400" width="8" height="8" fill="#16e0bd" opacity="0.6"/>
  <rect x="1112" y="440" width="8" height="8" fill="#ff2aad" opacity="0.5"/>

  <!-- Building 10 -->
  <rect x="1220" y="140" width="90" height="360" fill="#3a3a92"/>
  <rect x="1232" y="160" width="8" height="8" fill="#16e0bd" opacity="0.6"/>
  <rect x="1256" y="160" width="8" height="8" fill="#16e0bd" opacity="0.7"/>
  <rect x="1280" y="160" width="8" height="8" fill="#ff2aad" opacity="0.5"/>
  <rect x="1232" y="200" width="8" height="8" fill="#ff2aad" opacity="0.7"/>
  <rect x="1256" y="200" width="8" height="8" fill="#1a1a3a"/>
  <rect x="1280" y="200" width="8" height="8" fill="#16e0bd" opacity="0.8"/>
  <rect x="1232" y="240" width="8" height="8" fill="#16e0bd" opacity="0.5"/>
  <rect x="1256" y="240" width="8" height="8" fill="#16e0bd" opacity="0.6"/>
  <rect x="1280" y="240" width="8" height="8" fill="#ff2aad" opacity="0.6"/>
  <rect x="1256" y="320" width="8" height="8" fill="#16e0bd" opacity="0.7"/>
  <rect x="1232" y="380" width="8" height="8" fill="#ff2aad" opacity="0.5"/>
  <rect x="1280" y="440" width="8" height="8" fill="#16e0bd" opacity="0.6"/>

  <!-- Building 11 -->
  <rect x="1350" y="180" width="60" height="320" fill="#3a3a92"/>
  <rect x="1362" y="200" width="8" height="8" fill="#16e0bd" opacity="0.7"/>
  <rect x="1386" y="200" width="8" height="8" fill="#ff2aad" opacity="0.6"/>
  <rect x="1362" y="260" width="8" height="8" fill="#1a1a3a"/>
  <rect x="1386" y="260" width="8" height="8" fill="#16e0bd" opacity="0.5"/>
  <rect x="1362" y="340" width="8" height="8" fill="#16e0bd" opacity="0.8"/>
  <rect x="1386" y="400" width="8" height="8" fill="#ff2aad" opacity="0.7"/>

  <!-- Building 12 -->
  <rect x="1440" y="260" width="110" height="240" fill="#3a3a92"/>
  <rect x="1452" y="280" width="8" height="8" fill="#16e0bd" opacity="0.6"/>
  <rect x="1480" y="280" width="8" height="8" fill="#ff2aad" opacity="0.7"/>
  <rect x="1508" y="280" width="8" height="8" fill="#16e0bd" opacity="0.5"/>
  <rect x="1530" y="280" width="8" height="8" fill="#16e0bd" opacity="0.8"/>
  <rect x="1452" y="320" width="8" height="8" fill="#ff2aad" opacity="0.5"/>
  <rect x="1480" y="320" width="8" height="8" fill="#16e0bd" opacity="0.7"/>
  <rect x="1508" y="320" width="8" height="8" fill="#1a1a3a"/>
  <rect x="1530" y="320" width="8" height="8" fill="#16e0bd" opacity="0.6"/>
  <rect x="1480" y="380" width="8" height="8" fill="#16e0bd" opacity="0.5"/>
  <rect x="1530" y="380" width="8" height="8" fill="#ff2aad" opacity="0.6"/>
  <rect x="1452" y="440" width="8" height="8" fill="#16e0bd" opacity="0.7"/>
  <rect x="1508" y="440" width="8" height="8" fill="#16e0bd" opacity="0.5"/>

  <!-- Building 13 -->
  <rect x="1590" y="80" width="80" height="420" fill="#3a3a92"/>
  <rect x="1628" y="50" width="4" height="30" fill="#3a3a92"/>
  <rect x="1625" y="46" width="10" height="6" fill="#ff2aad" opacity="0.9"/>
  <rect x="1602" y="100" width="8" height="8" fill="#16e0bd" opacity="0.7"/>
  <rect x="1626" y="100" width="8" height="8" fill="#16e0bd" opacity="0.6"/>
  <rect x="1650" y="100" width="8" height="8" fill="#ff2aad" opacity="0.5"/>
  <rect x="1602" y="140" width="8" height="8" fill="#1a1a3a"/>
  <rect x="1626" y="140" width="8" height="8" fill="#16e0bd" opacity="0.8"/>
  <rect x="1650" y="140" width="8" height="8" fill="#16e0bd" opacity="0.6"/>
  <rect x="1602" y="200" width="8" height="8" fill="#16e0bd" opacity="0.5"/>
  <rect x="1650" y="200" width="8" height="8" fill="#ff2aad" opacity="0.7"/>
  <rect x="1626" y="280" width="8" height="8" fill="#16e0bd" opacity="0.6"/>
  <rect x="1602" y="360" width="8" height="8" fill="#ff2aad" opacity="0.5"/>
  <rect x="1650" y="360" width="8" height="8" fill="#16e0bd" opacity="0.7"/>
  <rect x="1626" y="440" width="8" height="8" fill="#16e0bd" opacity="0.6"/>

  <!-- Building 14 -->
  <rect x="1710" y="200" width="70" height="300" fill="#3a3a92"/>
  <rect x="1722" y="220" width="8" height="8" fill="#16e0bd" opacity="0.6"/>
  <rect x="1746" y="220" width="8" height="8" fill="#ff2aad" opacity="0.7"/>
  <rect x="1760" y="220" width="8" height="8" fill="#16e0bd" opacity="0.5"/>
  <rect x="1722" y="280" width="8" height="8" fill="#16e0bd" opacity="0.8"/>
  <rect x="1746" y="280" width="8" height="8" fill="#1a1a3a"/>
  <rect x="1760" y="280" width="8" height="8" fill="#16e0bd" opacity="0.6"/>
  <rect x="1746" y="360" width="8" height="8" fill="#ff2aad" opacity="0.5"/>
  <rect x="1722" y="420" width="8" height="8" fill="#16e0bd" opacity="0.7"/>

  <!-- Building 15 -->
  <rect x="1820" y="160" width="100" height="340" fill="#3a3a92"/>
  <rect x="1832" y="180" width="8" height="8" fill="#ff2aad" opacity="0.6"/>
  <rect x="1856" y="180" width="8" height="8" fill="#16e0bd" opacity="0.7"/>
  <rect x="1880" y="180" width="8" height="8" fill="#16e0bd" opacity="0.5"/>
  <rect x="1900" y="180" width="8" height="8" fill="#ff2aad" opacity="0.8"/>
  <rect x="1832" y="220" width="8" height="8" fill="#16e0bd" opacity="0.6"/>
  <rect x="1856" y="220" width="8" height="8" fill="#1a1a3a"/>
  <rect x="1880" y="220" width="8" height="8" fill="#ff2aad" opacity="0.7"/>
  <rect x="1900" y="220" width="8" height="8" fill="#16e0bd" opacity="0.5"/>
  <rect x="1856" y="300" width="8" height="8" fill="#16e0bd" opacity="0.8"/>
  <rect x="1900" y="300" width="8" height="8" fill="#16e0bd" opacity="0.6"/>
  <rect x="1832" y="380" width="8" height="8" fill="#ff2aad" opacity="0.5"/>
  <rect x="1880" y="380" width="8" height="8" fill="#16e0bd" opacity="0.7"/>
  <rect x="1856" y="440" width="8" height="8" fill="#16e0bd" opacity="0.6"/>
  <rect x="1900" y="440" width="8" height="8" fill="#ff2aad" opacity="0.7"/>

  <!-- Wrap-around: partial building bridging right edge to next tile's left -->
  <rect x="1910" y="220" width="30" height="280" fill="#3a3a92"/>
  <rect x="1918" y="240" width="8" height="8" fill="#16e0bd" opacity="0.6"/>
  <rect x="1918" y="300" width="8" height="8" fill="#ff2aad" opacity="0.5"/>
  <rect x="1918" y="380" width="8" height="8" fill="#16e0bd" opacity="0.7"/>

  <!-- Mirror at left: continuation of wrapping building from previous tile -->
  <rect x="-20" y="220" width="30" height="280" fill="#3a3a92"/>
  <rect x="-12" y="260" width="8" height="8" fill="#16e0bd" opacity="0.5"/>
  <rect x="-12" y="340" width="8" height="8" fill="#ff2aad" opacity="0.6"/>
  <rect x="-12" y="420" width="8" height="8" fill="#16e0bd" opacity="0.7"/>
</svg>